<?xml version="1.0" encoding="utf-8"?>
<svg width="30px" height="30px" viewBox="0 0 30 30" version="1.1" xmlns:xlink="http://www.w3.org/1999/xlink" xmlns="http://www.w3.org/2000/svg">
	<defs>
		<path d="M30 0L30 0L30 30L0 30L0 0L30 0Z" id="path_1" />
		<clipPath id="clip_1">
			<use xlink:href="#path_1" clip-rule="evenodd" fill-rule="evenodd" />
		</clipPath>
	</defs>
	<g id="Apple Logo">
		<path d="M30 0L30 0L30 30L0 30L0 0L30 0Z" id="Apple-Logo" fill="none" stroke="none" />
		<path d="M25.565 9.785C25.442 9.862 22.514 11.487 22.514 15.09C22.652 19.199 26.209 20.64 26.27 20.64C26.209 20.717 25.733 22.603 24.323 24.58C23.204 26.283 21.962 28 20.076 28C18.282 28 17.638 26.865 15.568 26.865C13.345 26.865 12.716 28 11.014 28C9.128 28 7.794 26.191 6.614 24.504C5.081 22.296 3.778 18.831 3.732 15.504C3.701 13.741 4.039 12.008 4.897 10.536C6.108 8.481 8.27 7.086 10.631 7.04C12.44 6.979 14.05 8.282 15.154 8.282C16.212 8.282 18.19 7.04 20.428 7.04C21.394 7.041 23.97 7.332 25.565 9.785L25.565 9.785ZM15.001 6.688C14.679 5.078 15.568 3.468 16.396 2.441C17.454 1.199 19.125 0.356 20.566 0.356C20.658 1.966 20.075 3.545 19.033 4.695C18.098 5.937 16.488 6.872 15.001 6.688L15.001 6.688Z" id="Shape" fill="#FFFFFF" fill-rule="evenodd" stroke="none" clip-path="url(#clip_1)" />
		<path d="M25.565 9.785C25.442 9.862 22.514 11.487 22.514 15.09C22.652 19.199 26.209 20.64 26.27 20.64C26.209 20.717 25.733 22.603 24.323 24.58C23.204 26.283 21.962 28 20.076 28C18.282 28 17.638 26.865 15.568 26.865C13.345 26.865 12.716 28 11.014 28C9.128 28 7.794 26.191 6.614 24.504C5.081 22.296 3.778 18.831 3.732 15.504C3.701 13.741 4.039 12.008 4.897 10.536C6.108 8.481 8.27 7.086 10.631 7.04C12.44 6.979 14.05 8.282 15.154 8.282C16.212 8.282 18.19 7.04 20.428 7.04C21.394 7.041 23.97 7.332 25.565 9.785L25.565 9.785ZM15.001 6.688C14.679 5.078 15.568 3.468 16.396 2.441C17.454 1.199 19.125 0.356 20.566 0.356C20.658 1.966 20.075 3.545 19.033 4.695C18.098 5.937 16.488 6.872 15.001 6.688L15.001 6.688Z" id="Shape" fill="#FFFFFF" fill-rule="evenodd" stroke="none" clip-path="url(#clip_1)" />
	</g>
</svg>
